<svg xmlns="http://www.w3.org/2000/svg" viewBox="0 0 640 400" width="640" height="400" role="img">
<defs><linearGradient id="sky" x1="0" y1="0" x2="0" y2="1"><stop offset="0" stop-color="#8fc4e8"/><stop offset="1" stop-color="#d9edf7"/></linearGradient></defs>
<rect width="640" height="400" rx="18" fill="#0b1020"/>
<g clip-path="url(#rnd)"><rect width="640" height="400" fill="url(#sky)"/><circle cx="90" cy="70" r="34" fill="#ffcf5c" opacity="0.8"/><path d="M0 310 Q 128 230 268.8 270 T 512 276 T 640 260 L 640 400 L0 400 Z" fill="#5a9247"/><path d="M0 330 Q 128 290 268.8 310 T 512 316 T 640 300 L 640 400 L0 400 Z" fill="#7cb765"/><g transform="translate(210,320) scale(1.5,1.5)">
  <ellipse cx="0" cy="42" rx="17" ry="5" fill="#000" opacity="0.12"/>
  <path d="M-13 40 L-8 4 Q0 -2 8 4 L13 40 Z" fill="#6f8fc9"/>
  <circle cx="0" cy="-8" r="10" fill="#e8b58a"/>
  <path d="M-10 -10 Q0 -22 10 -10 Q6 -18 0 -19 Q-6 -18 -10 -10 Z" fill="#4a3b2a" opacity="0.75"/>
</g><path d="M232 268 q18 -14 8 -26" stroke="#9b6438" stroke-width="5" fill="none" stroke-linecap="round"/>
   <rect x="228" y="266" width="5" height="66" rx="2" fill="#9b6438"/><g transform="translate(330,330) scale(1.1)">
  <ellipse cx="0" cy="14" rx="14" ry="4" fill="#000" opacity="0.10"/>
  <circle cx="-7" cy="0" r="9" fill="#fdfcf7"/><circle cx="0" cy="-3" r="10" fill="#fdfcf7"/>
  <circle cx="8" cy="0" r="9" fill="#fdfcf7"/>
  <circle cx="14" cy="-2" r="6" fill="#4a3b2a" opacity="0.8"/>
  <rect x="-6" y="7" width="3" height="7" fill="#4a3b2a" opacity="0.7"/>
  <rect x="5" y="7" width="3" height="7" fill="#4a3b2a" opacity="0.7"/>
</g><g transform="translate(420,344) scale(1)">
  <ellipse cx="0" cy="14" rx="14" ry="4" fill="#000" opacity="0.10"/>
  <circle cx="-7" cy="0" r="9" fill="#fdfcf7"/><circle cx="0" cy="-3" r="10" fill="#fdfcf7"/>
  <circle cx="8" cy="0" r="9" fill="#fdfcf7"/>
  <circle cx="14" cy="-2" r="6" fill="#4a3b2a" opacity="0.8"/>
  <rect x="-6" y="7" width="3" height="7" fill="#4a3b2a" opacity="0.7"/>
  <rect x="5" y="7" width="3" height="7" fill="#4a3b2a" opacity="0.7"/>
</g><g transform="translate(500,326) scale(0.9)">
  <ellipse cx="0" cy="14" rx="14" ry="4" fill="#000" opacity="0.10"/>
  <circle cx="-7" cy="0" r="9" fill="#fdfcf7"/><circle cx="0" cy="-3" r="10" fill="#fdfcf7"/>
  <circle cx="8" cy="0" r="9" fill="#fdfcf7"/>
  <circle cx="14" cy="-2" r="6" fill="#4a3b2a" opacity="0.8"/>
  <rect x="-6" y="7" width="3" height="7" fill="#4a3b2a" opacity="0.7"/>
  <rect x="5" y="7" width="3" height="7" fill="#4a3b2a" opacity="0.7"/>
</g></g>
<clipPath id="rnd"><rect width="640" height="400" rx="18"/></clipPath>
</svg>
